<?xml version="1.0" encoding="UTF-8"?>
<svg width="68px" height="89px" viewBox="0 0 68 89" version="1.1" xmlns="http://www.w3.org/2000/svg" xmlns:xlink="http://www.w3.org/1999/xlink">
    <title>Group 10</title>
    <defs>
        <polygon id="path-1" points="0 0 8 0 8 16 0 16"></polygon>
    </defs>
    <g id="V2-Release-(KiwiTech)" stroke="none" stroke-width="1" fill="none" fill-rule="evenodd">
        <g id="sign-in" transform="translate(-153.000000, -78.000000)">
            <g id="Group-10" transform="translate(153.000000, 78.000000)">
                <path d="M28.4783274,46.3311064 C34.0725853,55.7628274 34.297751,66.7373063 30.1369424,76 C19.7856625,74.8198824 10.1130511,69.1036879 4.51879317,59.6719669 C-1.07229338,50.2371726 -1.29745909,39.2626937 2.86334951,30 C13.2178008,31.1831908 22.8840695,36.8993854 28.4783274,46.3311064" id="Fill-1" fill="#FB8400"></path>
                <g id="Group-5" transform="translate(26.000000, 73.000000)">
                    <mask id="mask-2" fill="white">
                        <use xlink:href="#path-1"></use>
                    </mask>
                    <g id="Clip-4"></g>
                    <path d="M8,16.0015298 L0,16.0015298 C0,16.0015298 2.01807229,11.093986 2.01807229,4.09369921 L2.01807229,0 L5.93072289,0 L5.93072289,4.09369921 C5.93072289,11.0664499 8,16.0015298 8,16.0015298" id="Fill-3" fill="#3F2D35" mask="url(#mask-2)"></path>
                </g>
                <path d="M11.0339547,37.2843546 C10.4435065,52.8684946 17.597614,66.9351586 29.0629304,76 C41.1780522,67.8031671 49.3755972,54.2997853 49.9660453,38.7156454 C50.5564935,23.1284274 43.402386,9.0617634 31.9370696,0 C19.8219478,8.19683285 11.6212788,21.7002147 11.0339547,37.2843546" id="Fill-6" fill="#0053FF"></path>
                <path d="M32.238561,38.0610094 C24.9112591,49.9549617 24.2541997,63.997977 29.1369917,76 C42.138048,74.8297487 54.4353346,67.8360307 61.7595225,55.9389906 C69.0868244,44.0450383 69.7469978,30.002023 64.8642059,18 C51.8631495,19.173339 39.565863,26.1639693 32.238561,38.0610094" id="Fill-8" fill="#00852C"></path>
            </g>
        </g>
    </g>
</svg>